<svg xmlns="http://www.w3.org/2000/svg" width="20" height="20" viewBox="0 0 20 20">
  <path id="call_FILL0_wght400_GRAD0_opsz48" d="M138.75,236a14.984,14.984,0,0,1-6.736-1.667,23.118,23.118,0,0,1-10.347-10.347A14.984,14.984,0,0,1,120,217.25a1.221,1.221,0,0,1,1.25-1.25h3.889a.989.989,0,0,1,.675.264,1.214,1.214,0,0,1,.38.708l.75,3.5a2,2,0,0,1-.014.708,1.07,1.07,0,0,1-.292.542l-2.778,2.806a23.063,23.063,0,0,0,3.486,4.5,19.268,19.268,0,0,0,4.375,3.25l2.639-2.722a1.536,1.536,0,0,1,.639-.431,1.284,1.284,0,0,1,.722-.042l3.306.722a1.228,1.228,0,0,1,.7.422A1.169,1.169,0,0,1,140,231v3.75a1.221,1.221,0,0,1-1.25,1.25Zm-15.722-13,2.25-2.278-.639-3.056h-2.972a9.561,9.561,0,0,0,.333,2.375A22.391,22.391,0,0,0,123.028,223Zm10.25,10.083a13.863,13.863,0,0,0,2.472.861,13.035,13.035,0,0,0,2.583.389v-2.972l-2.861-.583ZM123.028,223ZM133.278,233.083Z" transform="translate(-120 -216)" fill="#0089ce"/>
</svg>
