<svg xmlns="http://www.w3.org/2000/svg" width="100" height="100" viewBox="0 0 100 100">
  <path id="error_FILL0_wght400_GRAD0_opsz48" d="M130,251a4.053,4.053,0,1,0-2.938-1.188A4,4,0,0,0,130,251Zm-3.373-19.125h7.5V200.25h-7.5ZM130.033,276a48.4,48.4,0,0,1-19.438-3.938,50.508,50.508,0,0,1-26.658-26.668,50.044,50.044,0,0,1,0-38.915,50.029,50.029,0,0,1,10.75-15.855,51.32,51.32,0,0,1,15.918-10.688,50.044,50.044,0,0,1,38.915,0A49.975,49.975,0,0,1,176.063,206.5a50.018,50.018,0,0,1,0,38.9,51.068,51.068,0,0,1-10.688,15.885,50.477,50.477,0,0,1-15.875,10.75A48.362,48.362,0,0,1,130.033,276Zm.029-7.5A42.359,42.359,0,0,0,172.5,225.937,42.213,42.213,0,0,0,130,183.5a42.515,42.515,0,0,0-30.062,72.562A41.029,41.029,0,0,0,130.062,268.5ZM130,226Z" transform="translate(-80 -176)" fill="#dc3545"/>
</svg>
