<svg id="logo.95ff2522" xmlns="http://www.w3.org/2000/svg" width="52.298" height="29.949" viewBox="0 0 52.298 29.949">
  <path id="Path_14" data-name="Path 14" d="M48.065,0,39.834,9.387h34.42Z" transform="translate(-22.028)" fill="#bbe5f8"/>
  <path id="Path_15" data-name="Path 15" d="M17.773,21,0,41.562H52.3V21Z" transform="translate(0 -11.613)" fill="#0b4b7f"/>
  <g id="Group_6" data-name="Group 6" transform="translate(21.455 19.667)">
    <path id="Path_16" data-name="Path 16" d="M50.245,47.93h.894v.894h-.894ZM48,47.93h.894v.894H48Zm4.491,0h.894v.894h-.894ZM48,46.058h.894v.894H48Zm2.245,0h.894v.894h-.894Zm2.246,0h.894v.894h-.894Zm2.245,0h.894v.894h-.894ZM48,44h.894v.894H48Zm2.245,0h.894v.894h-.894Zm2.246,0h.894v.894h-.894Zm2.245,0h.894v.894h-.894Zm-4.491,5.8h.894v.894h-.894ZM48,49.8h.894v.894H48Zm4.491,0h.894v.894h-.894Zm2.245,0h.894v.894h-.894Zm0-1.869h.894v.894h-.894Zm6.736.935h.894v.894h-.894Zm-2.246,0h.894v.894h-.894Zm4.491,0h.894v.894h-.894Zm2.245,0h.894v.894h-.893Zm2.245,0H69.1v.894h-.893Z" transform="translate(-48 -44)" fill="#fff"/>
    <path id="Path_17" data-name="Path 17" d="M88.186,54.884h.894v.894h-.894Zm4.491,0h.894v.894h-.892Zm2.994,0h.894v.894h-.9Z" transform="translate(-70.223 -50.019)" fill="#fff"/>
  </g>
  <path id="Path_18" data-name="Path 18" d="M0,29.948,17.7,9.5,26.037,0,0,9.5Z" fill="#2386c2"/>
</svg>
