<svg id="verified_user_black_24dp" xmlns="http://www.w3.org/2000/svg" width="19.992" height="19.992" viewBox="0 0 19.992 19.992">
  <path id="Path_68" data-name="Path 68" d="M0,0H19.992V19.992H0Z" fill="none"/>
  <path id="Path_69" data-name="Path 69" d="M10.5,1,3,4.332v5a10.367,10.367,0,0,0,7.5,10,10.367,10.367,0,0,0,7.5-10v-5Zm5.831,8.33A8.724,8.724,0,0,1,10.5,17.6,8.724,8.724,0,0,1,4.666,9.33V5.415L10.5,2.824l5.831,2.591Zm-9.655.491L5.5,11l3.332,3.332L15.5,7.664,14.321,6.481l-5.49,5.49Z" transform="translate(-0.501 -0.167)" fill="#fff"/>
</svg>
